<svg version="1.2" baseProfile="tiny" viewBox="0 0 52.625 45.65" xmlns:xlink="http://www.w3.org/1999/xlink" xmlns="http://www.w3.org/2000/svg">
<path style="fill:#ffffff;" d="M51.6251,33.75L47.5619,33.75L47.5619,1.0002C47.5619,0.9879,47.5562,0.9778,47.5551,0.966C47.5509,0.8509,47.5309,0.7382,47.4877,0.63C47.4799,0.6099,47.4678,0.593,47.4588,0.5738C47.4378,0.5291,47.4188,0.4821,47.3909,0.4392C47.363,0.3981,47.3278,0.3652,47.2941,0.3291C47.2788,0.3132,47.2678,0.2958,47.252,0.2812C47.172,0.2031,47.0788,0.142,46.9789,0.0959C46.9568,0.0858,46.9341,0.079,46.911,0.0698C46.7999,0.0292,46.6842,0.0,46.5631,0.0L6.0629,0.0C5.9408,0.0,5.8251,0.0292,5.7151,0.0698C5.6909,0.079,5.6688,0.0858,5.6461,0.0959C5.5461,0.1429,5.4541,0.2041,5.373,0.2812C5.3572,0.2958,5.3462,0.3132,5.3309,0.3291C5.2978,0.3652,5.263,0.3981,5.2341,0.4392C5.2062,0.4821,5.1878,0.5291,5.1651,0.5752C5.1562,0.5939,5.1462,0.6099,5.1373,0.63C5.0941,0.7382,5.0731,0.8509,5.0688,0.966C5.0688,0.9778,5.062,0.9879,5.062,1.0002L5.062,33.75L0.9999,33.75L0.9999,33.75C0.6762,33.75,0.3878,33.9038,0.2052,34.143C0.0758,34.311,0.0,34.521,0.0,34.7501C0.0,34.9569,0.0632,35.1491,0.171,35.3089C0.351,35.575,0.6541,35.7499,0.9999,35.7499L11.1249,35.7499C11.4438,35.7499,11.7291,35.6011,11.9122,35.3669C12.0459,35.1971,12.1248,34.983,12.1248,34.7501C12.1248,34.5082,12.039,34.2859,11.8959,34.1129C11.7127,33.891,11.4349,33.75,11.1249,33.75L7.0628,33.75L7.0628,33.75L7.0628,6.1929L18.5619,34.9419L18.5619,44.6498C18.5619,45.2031,19.0092,45.65,19.5618,45.65L33.0632,45.65C33.6158,45.65,34.0631,45.2031,34.0631,44.6498L34.0631,34.9419L45.5633,6.1929L45.5633,33.75L41.5001,33.75L41.5001,33.75C41.1759,33.75,40.888,33.9038,40.7049,34.143C40.576,34.311,40.5002,34.5219,40.5002,34.7501C40.5002,34.983,40.5791,35.1971,40.7128,35.3669C40.897,35.6002,41.1812,35.7499,41.5001,35.7499L51.6251,35.7499C51.9251,35.7499,52.194,35.618,52.3771,35.4089C52.5308,35.2331,52.625,35.0031,52.625,34.7501C52.625,34.5132,52.5419,34.295,52.404,34.1229C52.2208,33.896,51.9398,33.75,51.6251,33.75M32.1339,34.379C32.087,34.4968,32.0628,34.6228,32.0628,34.7501L32.0628,43.6501L20.5622,43.6501L20.5622,43.6501L20.5622,34.7501C20.5622,34.6228,20.538,34.4968,20.4911,34.379L7.5401,1.9999L45.0849,1.9999L32.1339,34.379"/>
</svg>