<svg version="1.2" baseProfile="tiny" viewBox="0 0 79.624 63.798" xmlns:xlink="http://www.w3.org/1999/xlink" xmlns="http://www.w3.org/2000/svg">
<path style="fill:#ffffff;" d="M77.971,5.33l-0.016-0.046c-0.108-2.202-1.919-3.964-4.147-3.964H11.301H7.388h-0.67H5.816    c-2.073,0-3.784,1.527-4.101,3.512l-0.059,0.54v0.043c0,0.024-0.007,0.047-0.007,0.072v52.826c0,2.297,1.87,4.166,4.167,4.166    h0.901h0.67h3.913h62.507c2.298,0,4.168-1.869,4.168-4.166V5.486c0-0.015-0.004-0.029-0.004-0.043V5.33z M6.354,1.76h0.568h2.551    h1.827h62.507c2.042,0,3.702,1.651,3.724,3.688V20.46H7.574h-0.44H5.925h-0.44H2.096V5.414c0.04-2.021,1.689-3.654,3.72-3.654    H6.354z M11.301,62.039H9.475H6.923H6.355l-0.557-0.002c-2.027-0.01-3.672-1.646-3.703-3.668l0.001-0.023V20.899h3.389h0.44h1.209    h0.44h69.958v37.452c-0.021,2.036-1.681,3.688-3.724,3.688H11.301z M75.286,0H9.823H4.338C1.946,0,0,1.946,0,4.339V59.46    c0,2.391,1.946,4.338,4.338,4.338h5.485h65.463c2.393,0,4.338-1.947,4.338-4.338V4.339C79.624,1.946,77.679,0,75.286,0z     M79.185,59.46c0,2.148-1.75,3.896-3.898,3.896H9.823H7.953H4.338c-2.149,0-3.898-1.748-3.898-3.896V4.339    c0-2.149,1.749-3.898,3.898-3.898h3.616h1.869h65.463c2.148,0,3.898,1.749,3.898,3.898V59.46z"/>
</svg>